:version 1.10
:name ASF
:units
  mass 1
  length 1
  angle deg
:documentation
  ASF file generated by Kaydara
:root
  axis xyz
  order  tx ty tz rx ry rz
  position 0 0 0
  orientation 0 0 0
:bonedata
  begin
    id 1
    name RightUpLegDummy
    direction -0.65628 -0.754516 0.00165102
    length 4.76918
    axis 0 0 0 xyz
  end
  begin
    id 2
    name RightUpLeg
    direction -0.145584 -0.923362 0.355256
    length 17.9961
    axis -24.7611 -13.1006 1.78531 xyz
    dof rx ry rz
  end
  begin
    id 3
    name RightLeg
    direction 0.263379 0.172355 -0.949171
    length 13.3386
    axis 89.6202 -21.1929 12.3855 xyz
    dof rx ry rz
  end
  begin
    id 4
    name RightFoot
    direction 0.224283 -0.968777 -0.105675
    length 5.86697
    axis 56.995 -39.6905 17.3365 xyz
    dof rx ry rz
  end
  begin
    id 5
    name RightToes
    direction -0.0806345 -0.9037 0.420506
    length 4.75197
    axis 146.825 -39.7828 17.6019 xyz
    dof rx ry rz
  end
  begin
    id 6
    name SpineDummy
    direction -3.39852e-014 1 9.33296e-014
    length 8.13779
    axis 0 0 0 xyz
  end
  begin
    id 7
    name Spine
    direction -0.156609 0.733703 0.661176
    length 7.14978
    axis 41.2365 5.68757 17.0844 xyz
    dof rx ry rz
  end
  begin
    id 8
    name Spine1
    direction 0 0 0
    length 0
    axis 42.8809 47.8308 -3.36039 xyz
    dof rx ry rz
  end
  begin
    id 9
    name HEadDummy
    direction 0.546431 0.701947 0.456819
    length 3.55512
    axis 42.8809 47.8308 -3.36039 xyz
  end
  begin
    id 10
    name HEad
    direction 0.23444 0.828559 0.508457
    length 7.35827
    axis 51.1864 49.2662 27.4903 xyz
    dof rx ry rz
  end
  begin
    id 11
    name LeftShoulder1Dummy
    direction 0.431183 0.475873 -0.766568
    length 2.49352
    axis 42.8809 47.8308 -3.36039 xyz
  end
  begin
    id 12
    name LeftShoulder1
    direction 0.268187 -0.383402 -0.883786
    length 4.48604
    axis -119.517 0.106469 35.1736 xyz
    dof rx ry rz
  end
  begin
    id 13
    name LeftArm
    direction 0.380567 -0.703221 -0.600541
    length 10.1142
    axis -5.41825 36.2925 7.8293 xyz
    dof rx ry rz
  end
  begin
    id 14
    name LeftForeArm
    direction 0.541071 -0.732356 -0.413396
    length 9.39839
    axis 4.65387 33.7604 7.81644 xyz
    dof rx ry rz
  end
  begin
    id 15
    name LeftHand
    direction 0.847511 -0.389379 -0.360707
    length 3.66142
    axis 7.65593 21.1436 -24.6758 xyz
    dof rx ry rz
  end
  begin
    id 16
    name RightShoulderDummy
    direction -0.692546 0.541855 0.476208
    length 2.49352
    axis 42.8809 47.8308 -3.36039 xyz
  end
  begin
    id 17
    name RightShoulder
    direction -0.870808 -0.316653 0.376065
    length 4.48602
    axis 141.571 51.133 -100.254 xyz
    dof rx ry rz
  end
  begin
    id 18
    name RightArm
    direction 0.366897 -0.87275 0.322015
    length 10.1142
    axis 92.3258 71.2036 138.917 xyz
    dof rx ry rz
  end
  begin
    id 19
    name RightForeArm
    direction 0.702487 -0.694568 0.155197
    length 9.39835
    axis 153.863 41.5092 -176.604 xyz
    dof rx ry rz
  end
  begin
    id 20
    name RightHand
    direction 0.79502 -0.601276 0.0800636
    length 3.66142
    axis 154.247 4.59222 142.9 xyz
    dof rx ry rz
  end
  begin
    id 21
    name LeftUpLegDummy
    direction 0.65628 -0.754516 0.00165102
    length 4.76919
    axis 0 0 0 xyz
  end
  begin
    id 22
    name LeftUpLeg
    direction -0.1277 -0.689368 0.713067
    length 17.9961
    axis -48.3385 -17.8675 0.791927 xyz
    dof rx ry rz
  end
  begin
    id 23
    name LeftLeg
    direction 0.109849 -0.991246 -0.0732378
    length 13.3386
    axis -2.05791 -7.30784 1.72042 xyz
    dof rx ry rz
  end
  begin
    id 24
    name LeftFoot
    direction 0.0448355 -0.272614 0.961078
    length 5.86697
    axis -18.7733 -7.89606 10.2113 xyz
    dof rx ry rz
  end
  begin
    id 25
    name LeftToes
    direction -0.18506 0.293668 0.937823
    length 4.75197
    axis 71.2267 -7.89606 10.2113 xyz
    dof rx ry rz
  end
:hierarchy
  begin
    root RightUpLegDummy SpineDummy LeftUpLegDummy
    RightUpLegDummy RightUpLeg
    RightUpLeg RightLeg
    RightLeg RightFoot
    RightFoot RightToes
    SpineDummy Spine
    Spine Spine1
    Spine1 HEadDummy LeftShoulder1Dummy RightShoulderDummy
    HEadDummy HEad
    LeftShoulder1Dummy LeftShoulder1
    LeftShoulder1 LeftArm
    LeftArm LeftForeArm
    LeftForeArm LeftHand
    RightShoulderDummy RightShoulder
    RightShoulder RightArm
    RightArm RightForeArm
    RightForeArm RightHand
    LeftUpLegDummy LeftUpLeg
    LeftUpLeg LeftLeg
    LeftLeg LeftFoot
    LeftFoot LeftToes
  end

:SAMPLES-PER-SECOND 30
:FULLY-SPECIFIED
:DEGREES
569
root  -19.9905 33.8959 -24.2713 -85.7321 21.7171 -178.464
RightUpLeg  -31.2762 -9.78415 -49.1081
RightLeg  -100.364 -10.9605 13.2385
RightFoot  8.50177 6.02065 -15.8845
RightToes  -1.27222e-014 -6.36111e-015 6.36111e-015
Spine  1.30976 -11.4679 -2.40943
Spine1  -14.2506 -13.4063 24.3643
HEad  -19.1071 -20.2831 -9.50872
LeftShoulder1  6.36111e-015 -1.33558e-015 6.49777e-015
LeftArm  -64.8529 -42.6085 0.136176
LeftForeArm  -25.3471 24.1592 -0.0311675
LeftHand  6.24338 14.0667 3.44142
RightShoulder  -4.77083e-015 -6.36111e-015 -3.18055e-015
RightArm  -14.2615 1.64204 -29.9294
RightForeArm  -6.14617 -29.2688 -10.0534
RightHand  23.833 -14.4468 -66.7317
LeftUpLeg  21.0655 9.20426 55.2073
LeftLeg  -41.7364 3.88907 -17.3777
LeftFoot  25.1313 11.5508 -20.8182
LeftToes  1.27222e-014 1.09105e-011 6.96064e-012
570
root  -22.2409 33.3092 -24.6756 -85.0009 8.68274 -167.869
RightUpLeg  -33.174 -11.2087 -50.4523
RightLeg  -104.098 -10.3208 12.4201
RightFoot  9.02489 7.07878 -18.0367
RightToes  -1.27222e-014 -6.36111e-015 6.36111e-015
Spine  2.2286 -5.72216 5.79687
Spine1  -13.6331 -10.6629 17.3775
HEad  -18.3924 -19.2076 -10.2642
LeftShoulder1  6.36111e-015 -1.33558e-015 6.49777e-015
LeftArm  -63.3676 -39.64 -3.83248
LeftForeArm  -22.6595 21.1965 2.42621
LeftHand  10.2827 18.5339 11.0782
RightShoulder  -4.77083e-015 -6.36111e-015 -3.18055e-015
RightArm  -12.8999 7.78032 -27.7762
RightForeArm  -6.03496 -32.6406 -3.3593
RightHand  24.0403 -16.1182 -64.0281
LeftUpLeg  22.2031 10.6074 53.0716
LeftLeg  -37.4145 0.427686 -13.7629
LeftFoot  25.3759 12.7926 -22.893
LeftToes  1.27222e-014 1.09105e-011 6.96064e-012
571
root  -24.2062 31.9544 -24.3578 -89.855 -3.38947 -156.217
RightUpLeg  -35.0079 -12.2412 -50.0814
RightLeg  -106.447 -10.8664 9.91987
RightFoot  9.40799 6.9745 -17.8887
RightToes  -1.27222e-014 -6.36111e-015 6.36111e-015
Spine  4.86678 -1.34378 11.7737
Spine1  -14.3888 -7.98217 13.5804
HEad  -15.4631 -16.6335 -11.4767
LeftShoulder1  6.36111e-015 -1.33558e-015 6.49777e-015
LeftArm  -55.9208 -31.8328 -9.31855
LeftForeArm  -19.2051 15.5772 2.67398
LeftHand  11.5077 18.8769 14.6057
RightShoulder  -4.77083e-015 -6.36111e-015 -3.18055e-015
RightArm  -9.26632 8.79515 -23.0006
RightForeArm  -4.1158 -23.6546 3.66889
RightHand  18.9026 -19.3979 -46.2728
LeftUpLeg  26.291 12.5185 51.2701
LeftLeg  -33.1484 -3.22254 -8.75189
LeftFoot  24.8449 13.5855 -24.531
LeftToes  1.27222e-014 1.09105e-011 6.96064e-012
572
root  -25.4487 29.9813 -23.4668 -100.26 -12.9043 -141.622
RightUpLeg  -37.7743 -12.3017 -47.3152
RightLeg  -108.499 -11.8589 7.46019
RightFoot  10.4086 6.77908 -17.6599
RightToes  -1.27222e-014 -6.36111e-015 6.36111e-015
Spine  5.9402 1.49175 14.0415
Spine1  -15.805 -5.27578 15.9281
HEad  -12.391 -12.2387 -11.1691
LeftShoulder1  6.36111e-015 -1.33558e-015 6.49777e-015
LeftArm  -47.8927 -18.5572 -14.2569
LeftForeArm  -14.273 5.80911 2.03677
LeftHand  12.0556 19.1608 15.8882
RightShoulder  -4.77083e-015 -6.36111e-015 -3.18055e-015
RightArm  5.23059 15.0903 -10.0987
RightForeArm  -7.77703 -12.2767 2.85405
RightHand  8.4165 -16.9664 -19.1574
LeftUpLeg  33.6565 17.4137 54.05
LeftLeg  -28.7885 -10.9908 -2.49295
LeftFoot  22.2192 12.0377 -22.9802
LeftToes  1.27222e-014 1.09105e-011 6.96064e-012
